<mxfile host="Electron" modified="2021-10-04T12:17:34.210Z" agent="5.0 (Windows NT 10.0; Win64; x64) AppleWebKit/537.36 (KHTML, like Gecko) draw.io/15.3.8 Chrome/94.0.4606.51 Electron/15.0.0 Safari/537.36" etag="RUGuaw5Ym7YvC2tZ4GqE" compressed="false" version="15.4.1" type="device">
  <diagram id="_dZ2vSCC3AdTdHDjgmOL" name="Page-1">
    <mxGraphModel dx="1010" dy="599" grid="1" gridSize="10" guides="1" tooltips="1" connect="1" arrows="1" fold="1" page="1" pageScale="1" pageWidth="827" pageHeight="1169" math="0" shadow="0">
      <root>
        <mxCell id="0" />
        <mxCell id="1" parent="0" />
        <mxCell id="ILOy5VJkkeH7OwAHrK8D-45" style="edgeStyle=none;rounded=0;sketch=1;orthogonalLoop=1;jettySize=auto;html=1;exitX=0;exitY=1;exitDx=0;exitDy=0;entryX=1;entryY=0;entryDx=0;entryDy=0;strokeWidth=2;" parent="1" source="ILOy5VJkkeH7OwAHrK8D-26" target="ILOy5VJkkeH7OwAHrK8D-27" edge="1">
          <mxGeometry relative="1" as="geometry" />
        </mxCell>
        <mxCell id="ILOy5VJkkeH7OwAHrK8D-57" style="edgeStyle=none;rounded=0;sketch=1;orthogonalLoop=1;jettySize=auto;html=1;exitX=1;exitY=1;exitDx=0;exitDy=0;entryX=0;entryY=0;entryDx=0;entryDy=0;strokeWidth=2;" parent="1" source="ILOy5VJkkeH7OwAHrK8D-26" target="ILOy5VJkkeH7OwAHrK8D-40" edge="1">
          <mxGeometry relative="1" as="geometry" />
        </mxCell>
        <mxCell id="ILOy5VJkkeH7OwAHrK8D-26" value="&lt;b&gt;&lt;font style=&quot;font-size: 14px&quot;&gt;f(5)&lt;/font&gt;&lt;/b&gt;" style="ellipse;whiteSpace=wrap;html=1;aspect=fixed;sketch=1;strokeWidth=2;" parent="1" vertex="1">
          <mxGeometry x="220" y="210" width="40" height="40" as="geometry" />
        </mxCell>
        <mxCell id="ILOy5VJkkeH7OwAHrK8D-46" style="edgeStyle=none;rounded=0;sketch=1;orthogonalLoop=1;jettySize=auto;html=1;exitX=0;exitY=1;exitDx=0;exitDy=0;entryX=0.78;entryY=-0.005;entryDx=0;entryDy=0;entryPerimeter=0;strokeWidth=2;" parent="1" source="ILOy5VJkkeH7OwAHrK8D-27" target="ILOy5VJkkeH7OwAHrK8D-29" edge="1">
          <mxGeometry relative="1" as="geometry" />
        </mxCell>
        <mxCell id="ILOy5VJkkeH7OwAHrK8D-47" style="edgeStyle=none;rounded=0;sketch=1;orthogonalLoop=1;jettySize=auto;html=1;exitX=1;exitY=1;exitDx=0;exitDy=0;entryX=0;entryY=0;entryDx=0;entryDy=0;strokeWidth=2;" parent="1" source="ILOy5VJkkeH7OwAHrK8D-27" target="ILOy5VJkkeH7OwAHrK8D-28" edge="1">
          <mxGeometry relative="1" as="geometry" />
        </mxCell>
        <mxCell id="ILOy5VJkkeH7OwAHrK8D-27" value="&lt;b&gt;&lt;font style=&quot;font-size: 14px&quot;&gt;f(4)&lt;/font&gt;&lt;/b&gt;" style="ellipse;whiteSpace=wrap;html=1;aspect=fixed;sketch=1;strokeWidth=2;" parent="1" vertex="1">
          <mxGeometry x="120" y="280" width="40" height="40" as="geometry" />
        </mxCell>
        <mxCell id="ILOy5VJkkeH7OwAHrK8D-48" style="edgeStyle=none;rounded=0;sketch=1;orthogonalLoop=1;jettySize=auto;html=1;exitX=1;exitY=1;exitDx=0;exitDy=0;entryX=0.5;entryY=0;entryDx=0;entryDy=0;strokeWidth=2;" parent="1" source="ILOy5VJkkeH7OwAHrK8D-28" target="ILOy5VJkkeH7OwAHrK8D-31" edge="1">
          <mxGeometry relative="1" as="geometry" />
        </mxCell>
        <mxCell id="ILOy5VJkkeH7OwAHrK8D-49" style="edgeStyle=none;rounded=0;sketch=1;orthogonalLoop=1;jettySize=auto;html=1;exitX=0;exitY=1;exitDx=0;exitDy=0;entryX=0.5;entryY=0;entryDx=0;entryDy=0;strokeWidth=2;" parent="1" source="ILOy5VJkkeH7OwAHrK8D-28" target="ILOy5VJkkeH7OwAHrK8D-30" edge="1">
          <mxGeometry relative="1" as="geometry" />
        </mxCell>
        <mxCell id="ILOy5VJkkeH7OwAHrK8D-28" value="&lt;b&gt;&lt;font style=&quot;font-size: 14px&quot;&gt;f(2)&lt;/font&gt;&lt;/b&gt;" style="ellipse;whiteSpace=wrap;html=1;aspect=fixed;sketch=1;strokeWidth=2;" parent="1" vertex="1">
          <mxGeometry x="170" y="340" width="40" height="40" as="geometry" />
        </mxCell>
        <mxCell id="ILOy5VJkkeH7OwAHrK8D-44" style="rounded=0;sketch=1;orthogonalLoop=1;jettySize=auto;html=1;exitX=0;exitY=1;exitDx=0;exitDy=0;entryX=0.5;entryY=0;entryDx=0;entryDy=0;strokeWidth=2;" parent="1" source="ILOy5VJkkeH7OwAHrK8D-29" target="ILOy5VJkkeH7OwAHrK8D-33" edge="1">
          <mxGeometry relative="1" as="geometry" />
        </mxCell>
        <mxCell id="ILOy5VJkkeH7OwAHrK8D-50" style="edgeStyle=none;rounded=0;sketch=1;orthogonalLoop=1;jettySize=auto;html=1;exitX=1;exitY=1;exitDx=0;exitDy=0;entryX=0.5;entryY=0;entryDx=0;entryDy=0;strokeWidth=2;" parent="1" source="ILOy5VJkkeH7OwAHrK8D-29" target="ILOy5VJkkeH7OwAHrK8D-34" edge="1">
          <mxGeometry relative="1" as="geometry" />
        </mxCell>
        <mxCell id="ILOy5VJkkeH7OwAHrK8D-29" value="&lt;font style=&quot;font-size: 14px&quot;&gt;&lt;b&gt;f(3)&lt;/b&gt;&lt;/font&gt;" style="ellipse;whiteSpace=wrap;html=1;aspect=fixed;sketch=1;strokeWidth=2;" parent="1" vertex="1">
          <mxGeometry x="70" y="340" width="40" height="40" as="geometry" />
        </mxCell>
        <mxCell id="ILOy5VJkkeH7OwAHrK8D-30" value="&lt;b&gt;&lt;font style=&quot;font-size: 14px&quot;&gt;f(1)&lt;/font&gt;&lt;/b&gt;" style="ellipse;whiteSpace=wrap;html=1;aspect=fixed;sketch=1;strokeWidth=2;" parent="1" vertex="1">
          <mxGeometry x="140" y="400" width="40" height="40" as="geometry" />
        </mxCell>
        <mxCell id="ILOy5VJkkeH7OwAHrK8D-31" value="&lt;font style=&quot;font-size: 14px&quot;&gt;&lt;b&gt;f(0)&lt;/b&gt;&lt;/font&gt;" style="ellipse;whiteSpace=wrap;html=1;aspect=fixed;sketch=1;strokeWidth=2;" parent="1" vertex="1">
          <mxGeometry x="190" y="400" width="40" height="40" as="geometry" />
        </mxCell>
        <mxCell id="ILOy5VJkkeH7OwAHrK8D-32" value="&lt;font style=&quot;font-size: 14px&quot;&gt;&lt;b&gt;f(0)&lt;/b&gt;&lt;/font&gt;" style="ellipse;whiteSpace=wrap;html=1;aspect=fixed;sketch=1;strokeWidth=2;" parent="1" vertex="1">
          <mxGeometry x="290" y="400" width="40" height="40" as="geometry" />
        </mxCell>
        <mxCell id="ILOy5VJkkeH7OwAHrK8D-66" style="edgeStyle=none;rounded=0;sketch=1;orthogonalLoop=1;jettySize=auto;html=1;exitX=0;exitY=1;exitDx=0;exitDy=0;entryX=0.5;entryY=0;entryDx=0;entryDy=0;strokeWidth=2;" parent="1" source="ILOy5VJkkeH7OwAHrK8D-33" target="ILOy5VJkkeH7OwAHrK8D-64" edge="1">
          <mxGeometry relative="1" as="geometry" />
        </mxCell>
        <mxCell id="ILOy5VJkkeH7OwAHrK8D-67" style="edgeStyle=none;rounded=0;sketch=1;orthogonalLoop=1;jettySize=auto;html=1;exitX=1;exitY=1;exitDx=0;exitDy=0;entryX=0.5;entryY=0;entryDx=0;entryDy=0;strokeWidth=2;" parent="1" source="ILOy5VJkkeH7OwAHrK8D-33" target="ILOy5VJkkeH7OwAHrK8D-65" edge="1">
          <mxGeometry relative="1" as="geometry" />
        </mxCell>
        <mxCell id="ILOy5VJkkeH7OwAHrK8D-33" value="&lt;font style=&quot;font-size: 14px&quot;&gt;&lt;b&gt;f(2)&lt;/b&gt;&lt;/font&gt;" style="ellipse;whiteSpace=wrap;html=1;aspect=fixed;sketch=1;strokeWidth=2;" parent="1" vertex="1">
          <mxGeometry x="40" y="400" width="40" height="40" as="geometry" />
        </mxCell>
        <mxCell id="ILOy5VJkkeH7OwAHrK8D-34" value="&lt;b&gt;&lt;font style=&quot;font-size: 14px&quot;&gt;f(1)&lt;/font&gt;&lt;/b&gt;" style="ellipse;whiteSpace=wrap;html=1;aspect=fixed;sketch=1;strokeWidth=2;" parent="1" vertex="1">
          <mxGeometry x="90" y="400" width="40" height="40" as="geometry" />
        </mxCell>
        <mxCell id="ILOy5VJkkeH7OwAHrK8D-35" value="&lt;font style=&quot;font-size: 14px&quot;&gt;&lt;b&gt;f(1)&lt;/b&gt;&lt;/font&gt;" style="ellipse;whiteSpace=wrap;html=1;aspect=fixed;sketch=1;strokeWidth=2;" parent="1" vertex="1">
          <mxGeometry x="240" y="400" width="40" height="40" as="geometry" />
        </mxCell>
        <mxCell id="ILOy5VJkkeH7OwAHrK8D-51" style="edgeStyle=none;rounded=0;sketch=1;orthogonalLoop=1;jettySize=auto;html=1;exitX=0;exitY=1;exitDx=0;exitDy=0;entryX=0.5;entryY=0;entryDx=0;entryDy=0;strokeWidth=2;" parent="1" source="ILOy5VJkkeH7OwAHrK8D-36" target="ILOy5VJkkeH7OwAHrK8D-35" edge="1">
          <mxGeometry relative="1" as="geometry" />
        </mxCell>
        <mxCell id="ILOy5VJkkeH7OwAHrK8D-52" style="edgeStyle=none;rounded=0;sketch=1;orthogonalLoop=1;jettySize=auto;html=1;exitX=1;exitY=1;exitDx=0;exitDy=0;entryX=0.34;entryY=0.055;entryDx=0;entryDy=0;entryPerimeter=0;strokeWidth=2;" parent="1" source="ILOy5VJkkeH7OwAHrK8D-36" target="ILOy5VJkkeH7OwAHrK8D-32" edge="1">
          <mxGeometry relative="1" as="geometry" />
        </mxCell>
        <mxCell id="ILOy5VJkkeH7OwAHrK8D-36" value="&lt;b&gt;&lt;font style=&quot;font-size: 14px&quot;&gt;f(2)&lt;/font&gt;&lt;/b&gt;" style="ellipse;whiteSpace=wrap;html=1;aspect=fixed;sketch=1;strokeWidth=2;" parent="1" vertex="1">
          <mxGeometry x="260" y="340" width="40" height="40" as="geometry" />
        </mxCell>
        <mxCell id="ILOy5VJkkeH7OwAHrK8D-39" value="&lt;font style=&quot;font-size: 14px&quot;&gt;&lt;b&gt;f(1)&lt;/b&gt;&lt;/font&gt;" style="ellipse;whiteSpace=wrap;html=1;aspect=fixed;sketch=1;strokeWidth=2;" parent="1" vertex="1">
          <mxGeometry x="340" y="340" width="40" height="40" as="geometry" />
        </mxCell>
        <mxCell id="ILOy5VJkkeH7OwAHrK8D-53" style="edgeStyle=none;rounded=0;sketch=1;orthogonalLoop=1;jettySize=auto;html=1;exitX=0;exitY=1;exitDx=0;exitDy=0;entryX=1;entryY=0;entryDx=0;entryDy=0;strokeWidth=2;" parent="1" source="ILOy5VJkkeH7OwAHrK8D-40" target="ILOy5VJkkeH7OwAHrK8D-36" edge="1">
          <mxGeometry relative="1" as="geometry" />
        </mxCell>
        <mxCell id="ILOy5VJkkeH7OwAHrK8D-54" style="edgeStyle=none;rounded=0;sketch=1;orthogonalLoop=1;jettySize=auto;html=1;exitX=1;exitY=1;exitDx=0;exitDy=0;entryX=0;entryY=0;entryDx=0;entryDy=0;strokeWidth=2;" parent="1" source="ILOy5VJkkeH7OwAHrK8D-40" target="ILOy5VJkkeH7OwAHrK8D-39" edge="1">
          <mxGeometry relative="1" as="geometry" />
        </mxCell>
        <mxCell id="ILOy5VJkkeH7OwAHrK8D-40" value="&lt;font style=&quot;font-size: 14px&quot;&gt;&lt;b&gt;f(3)&lt;/b&gt;&lt;/font&gt;" style="ellipse;whiteSpace=wrap;html=1;aspect=fixed;sketch=1;strokeWidth=2;" parent="1" vertex="1">
          <mxGeometry x="300" y="280" width="40" height="40" as="geometry" />
        </mxCell>
        <mxCell id="ILOy5VJkkeH7OwAHrK8D-64" value="&lt;b&gt;&lt;font style=&quot;font-size: 14px&quot;&gt;f(1)&lt;/font&gt;&lt;/b&gt;" style="ellipse;whiteSpace=wrap;html=1;aspect=fixed;sketch=1;strokeWidth=2;" parent="1" vertex="1">
          <mxGeometry x="10" y="460" width="40" height="40" as="geometry" />
        </mxCell>
        <mxCell id="ILOy5VJkkeH7OwAHrK8D-65" value="&lt;font style=&quot;font-size: 14px&quot;&gt;&lt;b&gt;f(0)&lt;/b&gt;&lt;/font&gt;" style="ellipse;whiteSpace=wrap;html=1;aspect=fixed;sketch=1;strokeWidth=2;" parent="1" vertex="1">
          <mxGeometry x="60" y="460" width="40" height="40" as="geometry" />
        </mxCell>
        <mxCell id="ILOy5VJkkeH7OwAHrK8D-68" value="" style="endArrow=classic;html=1;strokeWidth=2;sketch=1;" parent="1" edge="1">
          <mxGeometry width="50" height="50" relative="1" as="geometry">
            <mxPoint x="390" y="210" as="sourcePoint" />
            <mxPoint x="390" y="530" as="targetPoint" />
          </mxGeometry>
        </mxCell>
        <mxCell id="ILOy5VJkkeH7OwAHrK8D-69" value="" style="endArrow=classic;html=1;strokeWidth=2;sketch=1;" parent="1" edge="1">
          <mxGeometry width="50" height="50" relative="1" as="geometry">
            <mxPoint x="440" y="530" as="sourcePoint" />
            <mxPoint x="440" y="210" as="targetPoint" />
          </mxGeometry>
        </mxCell>
        <mxCell id="ILOy5VJkkeH7OwAHrK8D-72" value="&lt;b&gt;&lt;font style=&quot;font-size: 14px&quot;&gt;f(5)=5&lt;/font&gt;&lt;/b&gt;" style="ellipse;whiteSpace=wrap;html=1;aspect=fixed;sketch=1;strokeWidth=2;" parent="1" vertex="1">
          <mxGeometry x="660" y="220" width="40" height="40" as="geometry" />
        </mxCell>
        <mxCell id="ILOy5VJkkeH7OwAHrK8D-103" style="edgeStyle=none;rounded=0;sketch=1;orthogonalLoop=1;jettySize=auto;html=1;exitX=1;exitY=0;exitDx=0;exitDy=0;entryX=0;entryY=1;entryDx=0;entryDy=0;strokeWidth=2;" parent="1" source="ILOy5VJkkeH7OwAHrK8D-75" target="ILOy5VJkkeH7OwAHrK8D-72" edge="1">
          <mxGeometry relative="1" as="geometry" />
        </mxCell>
        <mxCell id="ILOy5VJkkeH7OwAHrK8D-75" value="&lt;b&gt;&lt;font style=&quot;font-size: 14px&quot;&gt;f(4)=3&lt;/font&gt;&lt;/b&gt;" style="ellipse;whiteSpace=wrap;html=1;aspect=fixed;sketch=1;strokeWidth=2;" parent="1" vertex="1">
          <mxGeometry x="560" y="290" width="40" height="40" as="geometry" />
        </mxCell>
        <mxCell id="ILOy5VJkkeH7OwAHrK8D-104" style="edgeStyle=none;rounded=0;sketch=1;orthogonalLoop=1;jettySize=auto;html=1;exitX=0.5;exitY=0;exitDx=0;exitDy=0;entryX=1;entryY=1;entryDx=0;entryDy=0;strokeWidth=2;" parent="1" source="ILOy5VJkkeH7OwAHrK8D-78" target="ILOy5VJkkeH7OwAHrK8D-75" edge="1">
          <mxGeometry relative="1" as="geometry" />
        </mxCell>
        <mxCell id="ILOy5VJkkeH7OwAHrK8D-78" value="&lt;b&gt;&lt;font style=&quot;font-size: 14px&quot;&gt;f(2)=1&lt;/font&gt;&lt;/b&gt;" style="ellipse;whiteSpace=wrap;html=1;aspect=fixed;sketch=1;strokeWidth=2;" parent="1" vertex="1">
          <mxGeometry x="610" y="350" width="40" height="40" as="geometry" />
        </mxCell>
        <mxCell id="ILOy5VJkkeH7OwAHrK8D-102" style="edgeStyle=none;rounded=0;sketch=1;orthogonalLoop=1;jettySize=auto;html=1;exitX=0.5;exitY=0;exitDx=0;exitDy=0;entryX=0;entryY=1;entryDx=0;entryDy=0;strokeWidth=2;" parent="1" source="ILOy5VJkkeH7OwAHrK8D-81" target="ILOy5VJkkeH7OwAHrK8D-75" edge="1">
          <mxGeometry relative="1" as="geometry" />
        </mxCell>
        <mxCell id="ILOy5VJkkeH7OwAHrK8D-81" value="&lt;font style=&quot;font-size: 14px&quot;&gt;&lt;b&gt;f(3)=2&lt;/b&gt;&lt;/font&gt;" style="ellipse;whiteSpace=wrap;html=1;aspect=fixed;sketch=1;strokeWidth=2;" parent="1" vertex="1">
          <mxGeometry x="510" y="350" width="40" height="40" as="geometry" />
        </mxCell>
        <mxCell id="ILOy5VJkkeH7OwAHrK8D-106" style="edgeStyle=none;rounded=0;sketch=1;orthogonalLoop=1;jettySize=auto;html=1;exitX=0.5;exitY=0;exitDx=0;exitDy=0;entryX=0;entryY=1;entryDx=0;entryDy=0;strokeWidth=2;" parent="1" source="ILOy5VJkkeH7OwAHrK8D-82" target="ILOy5VJkkeH7OwAHrK8D-78" edge="1">
          <mxGeometry relative="1" as="geometry" />
        </mxCell>
        <mxCell id="ILOy5VJkkeH7OwAHrK8D-82" value="&lt;b&gt;&lt;font style=&quot;font-size: 14px&quot;&gt;f(1)=1&lt;/font&gt;&lt;/b&gt;" style="ellipse;whiteSpace=wrap;html=1;aspect=fixed;sketch=1;strokeWidth=2;" parent="1" vertex="1">
          <mxGeometry x="580" y="410" width="40" height="40" as="geometry" />
        </mxCell>
        <mxCell id="ILOy5VJkkeH7OwAHrK8D-107" style="edgeStyle=none;rounded=0;sketch=1;orthogonalLoop=1;jettySize=auto;html=1;exitX=0.5;exitY=0;exitDx=0;exitDy=0;entryX=1;entryY=1;entryDx=0;entryDy=0;strokeWidth=2;" parent="1" source="ILOy5VJkkeH7OwAHrK8D-83" target="ILOy5VJkkeH7OwAHrK8D-78" edge="1">
          <mxGeometry relative="1" as="geometry" />
        </mxCell>
        <mxCell id="ILOy5VJkkeH7OwAHrK8D-83" value="&lt;font style=&quot;font-size: 14px&quot;&gt;&lt;b&gt;f(0)=0&lt;/b&gt;&lt;/font&gt;" style="ellipse;whiteSpace=wrap;html=1;aspect=fixed;sketch=1;strokeWidth=2;" parent="1" vertex="1">
          <mxGeometry x="630" y="410" width="40" height="40" as="geometry" />
        </mxCell>
        <mxCell id="ILOy5VJkkeH7OwAHrK8D-109" style="edgeStyle=none;rounded=0;sketch=1;orthogonalLoop=1;jettySize=auto;html=1;exitX=0.5;exitY=0;exitDx=0;exitDy=0;entryX=1;entryY=1;entryDx=0;entryDy=0;strokeWidth=2;" parent="1" source="ILOy5VJkkeH7OwAHrK8D-84" target="ILOy5VJkkeH7OwAHrK8D-92" edge="1">
          <mxGeometry relative="1" as="geometry" />
        </mxCell>
        <mxCell id="ILOy5VJkkeH7OwAHrK8D-84" value="&lt;font style=&quot;font-size: 14px&quot;&gt;&lt;b&gt;f(0)=0&lt;/b&gt;&lt;/font&gt;" style="ellipse;whiteSpace=wrap;html=1;aspect=fixed;sketch=1;strokeWidth=2;" parent="1" vertex="1">
          <mxGeometry x="730" y="410" width="40" height="40" as="geometry" />
        </mxCell>
        <mxCell id="ILOy5VJkkeH7OwAHrK8D-101" style="edgeStyle=none;rounded=0;sketch=1;orthogonalLoop=1;jettySize=auto;html=1;exitX=0.5;exitY=0;exitDx=0;exitDy=0;entryX=0;entryY=1;entryDx=0;entryDy=0;strokeWidth=2;" parent="1" source="ILOy5VJkkeH7OwAHrK8D-87" target="ILOy5VJkkeH7OwAHrK8D-81" edge="1">
          <mxGeometry relative="1" as="geometry" />
        </mxCell>
        <mxCell id="ILOy5VJkkeH7OwAHrK8D-87" value="&lt;font style=&quot;font-size: 14px&quot;&gt;&lt;b&gt;f(2)=1&lt;/b&gt;&lt;/font&gt;" style="ellipse;whiteSpace=wrap;html=1;aspect=fixed;sketch=1;strokeWidth=2;" parent="1" vertex="1">
          <mxGeometry x="480" y="410" width="40" height="40" as="geometry" />
        </mxCell>
        <mxCell id="ILOy5VJkkeH7OwAHrK8D-105" style="edgeStyle=none;rounded=0;sketch=1;orthogonalLoop=1;jettySize=auto;html=1;exitX=0.5;exitY=0;exitDx=0;exitDy=0;entryX=1;entryY=1;entryDx=0;entryDy=0;strokeWidth=2;" parent="1" source="ILOy5VJkkeH7OwAHrK8D-88" target="ILOy5VJkkeH7OwAHrK8D-81" edge="1">
          <mxGeometry relative="1" as="geometry" />
        </mxCell>
        <mxCell id="ILOy5VJkkeH7OwAHrK8D-88" value="&lt;b&gt;&lt;font style=&quot;font-size: 14px&quot;&gt;f(1)=1&lt;/font&gt;&lt;/b&gt;" style="ellipse;whiteSpace=wrap;html=1;aspect=fixed;sketch=1;strokeWidth=2;" parent="1" vertex="1">
          <mxGeometry x="530" y="410" width="40" height="40" as="geometry" />
        </mxCell>
        <mxCell id="ILOy5VJkkeH7OwAHrK8D-108" style="edgeStyle=none;rounded=0;sketch=1;orthogonalLoop=1;jettySize=auto;html=1;exitX=0.5;exitY=0;exitDx=0;exitDy=0;entryX=0.235;entryY=1.085;entryDx=0;entryDy=0;entryPerimeter=0;strokeWidth=2;" parent="1" source="ILOy5VJkkeH7OwAHrK8D-89" target="ILOy5VJkkeH7OwAHrK8D-92" edge="1">
          <mxGeometry relative="1" as="geometry" />
        </mxCell>
        <mxCell id="ILOy5VJkkeH7OwAHrK8D-89" value="&lt;font style=&quot;font-size: 14px&quot;&gt;&lt;b&gt;f(1)=1&lt;/b&gt;&lt;/font&gt;" style="ellipse;whiteSpace=wrap;html=1;aspect=fixed;sketch=1;strokeWidth=2;" parent="1" vertex="1">
          <mxGeometry x="680" y="410" width="40" height="40" as="geometry" />
        </mxCell>
        <mxCell id="ILOy5VJkkeH7OwAHrK8D-110" style="edgeStyle=none;rounded=0;sketch=1;orthogonalLoop=1;jettySize=auto;html=1;exitX=0.5;exitY=0;exitDx=0;exitDy=0;entryX=0;entryY=1;entryDx=0;entryDy=0;strokeWidth=2;" parent="1" source="ILOy5VJkkeH7OwAHrK8D-92" target="ILOy5VJkkeH7OwAHrK8D-96" edge="1">
          <mxGeometry relative="1" as="geometry" />
        </mxCell>
        <mxCell id="ILOy5VJkkeH7OwAHrK8D-92" value="&lt;b&gt;&lt;font style=&quot;font-size: 14px&quot;&gt;f(2)=1&lt;/font&gt;&lt;/b&gt;" style="ellipse;whiteSpace=wrap;html=1;aspect=fixed;sketch=1;strokeWidth=2;" parent="1" vertex="1">
          <mxGeometry x="700" y="350" width="40" height="40" as="geometry" />
        </mxCell>
        <mxCell id="ILOy5VJkkeH7OwAHrK8D-111" style="edgeStyle=none;rounded=0;sketch=1;orthogonalLoop=1;jettySize=auto;html=1;exitX=0.5;exitY=0;exitDx=0;exitDy=0;entryX=1;entryY=1;entryDx=0;entryDy=0;strokeWidth=2;" parent="1" source="ILOy5VJkkeH7OwAHrK8D-93" target="ILOy5VJkkeH7OwAHrK8D-96" edge="1">
          <mxGeometry relative="1" as="geometry" />
        </mxCell>
        <mxCell id="ILOy5VJkkeH7OwAHrK8D-93" value="&lt;font style=&quot;font-size: 14px&quot;&gt;&lt;b&gt;f(1)=1&lt;/b&gt;&lt;/font&gt;" style="ellipse;whiteSpace=wrap;html=1;aspect=fixed;sketch=1;strokeWidth=2;" parent="1" vertex="1">
          <mxGeometry x="777" y="350" width="40" height="40" as="geometry" />
        </mxCell>
        <mxCell id="ILOy5VJkkeH7OwAHrK8D-112" style="edgeStyle=none;rounded=0;sketch=1;orthogonalLoop=1;jettySize=auto;html=1;exitX=0;exitY=0;exitDx=0;exitDy=0;entryX=1;entryY=1;entryDx=0;entryDy=0;strokeWidth=2;" parent="1" source="ILOy5VJkkeH7OwAHrK8D-96" target="ILOy5VJkkeH7OwAHrK8D-72" edge="1">
          <mxGeometry relative="1" as="geometry" />
        </mxCell>
        <mxCell id="ILOy5VJkkeH7OwAHrK8D-96" value="&lt;font style=&quot;font-size: 14px&quot;&gt;&lt;b&gt;f(3)=2&lt;/b&gt;&lt;/font&gt;" style="ellipse;whiteSpace=wrap;html=1;aspect=fixed;sketch=1;strokeWidth=2;" parent="1" vertex="1">
          <mxGeometry x="740" y="290" width="40" height="40" as="geometry" />
        </mxCell>
        <mxCell id="ILOy5VJkkeH7OwAHrK8D-99" style="edgeStyle=none;rounded=0;sketch=1;orthogonalLoop=1;jettySize=auto;html=1;exitX=0.5;exitY=0;exitDx=0;exitDy=0;entryX=0;entryY=1;entryDx=0;entryDy=0;strokeWidth=2;" parent="1" source="ILOy5VJkkeH7OwAHrK8D-97" target="ILOy5VJkkeH7OwAHrK8D-87" edge="1">
          <mxGeometry relative="1" as="geometry" />
        </mxCell>
        <mxCell id="ILOy5VJkkeH7OwAHrK8D-97" value="&lt;b&gt;&lt;font style=&quot;font-size: 14px&quot;&gt;f(1)=1&lt;/font&gt;&lt;/b&gt;" style="ellipse;whiteSpace=wrap;html=1;aspect=fixed;sketch=1;strokeWidth=2;" parent="1" vertex="1">
          <mxGeometry x="450" y="470" width="40" height="40" as="geometry" />
        </mxCell>
        <mxCell id="ILOy5VJkkeH7OwAHrK8D-100" style="edgeStyle=none;rounded=0;sketch=1;orthogonalLoop=1;jettySize=auto;html=1;exitX=0.5;exitY=0;exitDx=0;exitDy=0;entryX=0.695;entryY=1.065;entryDx=0;entryDy=0;entryPerimeter=0;strokeWidth=2;" parent="1" source="ILOy5VJkkeH7OwAHrK8D-98" target="ILOy5VJkkeH7OwAHrK8D-87" edge="1">
          <mxGeometry relative="1" as="geometry" />
        </mxCell>
        <mxCell id="ILOy5VJkkeH7OwAHrK8D-98" value="&lt;font style=&quot;font-size: 14px&quot;&gt;&lt;b&gt;f(0)=0&lt;/b&gt;&lt;/font&gt;" style="ellipse;whiteSpace=wrap;html=1;aspect=fixed;sketch=1;strokeWidth=2;" parent="1" vertex="1">
          <mxGeometry x="500" y="470" width="40" height="40" as="geometry" />
        </mxCell>
        <mxCell id="ILOy5VJkkeH7OwAHrK8D-113" value="&lt;font style=&quot;font-size: 14px&quot;&gt;向&lt;br&gt;下&lt;br&gt;递&lt;br&gt;归&lt;/font&gt;" style="text;strokeColor=none;fillColor=none;html=1;fontSize=24;fontStyle=1;verticalAlign=middle;align=center;sketch=1;" parent="1" vertex="1">
          <mxGeometry x="350" y="336" width="100" height="40" as="geometry" />
        </mxCell>
        <mxCell id="ILOy5VJkkeH7OwAHrK8D-116" value="&lt;font style=&quot;font-size: 14px&quot;&gt;递&lt;br&gt;归&lt;br&gt;返&lt;br&gt;回&lt;br&gt;&lt;/font&gt;" style="text;strokeColor=none;fillColor=none;html=1;fontSize=24;fontStyle=1;verticalAlign=middle;align=center;sketch=1;" parent="1" vertex="1">
          <mxGeometry x="403" y="336" width="100" height="40" as="geometry" />
        </mxCell>
      </root>
    </mxGraphModel>
  </diagram>
</mxfile>
